<?xml version="1.0" standalone="no"?>
<!DOCTYPE svg PUBLIC "-//W3C//DTD SVG 20010904//EN"
 "http://www.w3.org/TR/2001/REC-SVG-20010904/DTD/svg10.dtd">
<svg version="1.0" xmlns="http://www.w3.org/2000/svg"
 width="98.000000pt" height="98.000000pt" viewBox="0 0 98.000000 98.000000"
 preserveAspectRatio="xMidYMid meet">
<metadata>
Created by potrace 1.11, written by Peter Selinger 2001-2013
</metadata>
<g transform="translate(0.000000,98.000000) scale(0.100000,-0.100000)"
fill="#000000" stroke="none">
<path d="M499 968 c-1 -5 -2 -11 -4 -15 -1 -5 -5 -26 -10 -48 -4 -22 -14 -53
-20 -69 l-12 -29 -13 52 c-14 58 -30 76 -30 34 0 -15 -5 -45 -11 -67 l-11 -38
-21 19 c-28 25 -71 51 -102 63 -22 8 -19 2 20 -46 49 -60 58 -85 23 -62 -26
17 -87 28 -93 18 -3 -4 9 -10 27 -14 70 -14 64 -28 -24 -57 -46 -16 -96 -29
-112 -29 l-29 0 22 -19 c12 -10 35 -24 51 -31 17 -7 30 -16 30 -21 0 -18 -73
-46 -123 -48 -16 -1 -17 -3 -3 -22 21 -31 76 -65 135 -85 29 -9 48 -20 43 -23
-5 -3 -19 -26 -32 -50 -20 -40 -20 -43 -3 -36 10 4 30 10 46 13 26 4 27 3 17
-22 -11 -31 -2 -33 31 -8 34 26 59 34 60 19 1 -7 2 -16 4 -22 1 -5 3 -17 4
-25 1 -9 10 -2 23 18 26 41 38 28 37 -38 0 -50 -16 -68 -97 -110 -23 -12 -50
-34 -60 -49 -16 -22 -52 -103 -52 -116 0 -2 128 -4 285 -4 l285 -1 0 35 c0 19
-4 35 -9 35 -5 0 -12 14 -16 30 -8 38 -43 73 -98 101 -70 35 -77 45 -77 111 0
57 1 58 28 58 26 1 26 1 8 15 -18 14 -12 15 59 15 72 0 77 1 60 15 -11 8 -31
24 -45 35 l-25 19 28 1 c23 0 37 -14 89 -82 66 -90 99 -155 116 -233 11 -47
21 -115 22 -142 0 -7 5 -13 10 -13 6 0 8 14 5 33 -2 17 -7 48 -9 66 -16 105
-87 259 -151 327 -19 20 -35 42 -35 48 1 22 27 46 71 64 l44 19 -45 12 c-100
27 -99 25 -52 44 23 9 42 18 42 20 0 2 -24 3 -53 1 l-54 -3 34 65 c22 41 37
84 40 119 l6 56 -59 -40 c-32 -22 -60 -38 -62 -36 -2 2 4 16 14 32 l18 28 -24
-20 c-14 -11 -37 -31 -52 -44 l-28 -25 0 55 c-1 52 -1 53 -13 25 l-13 -30 -17
65 c-17 61 -35 103 -38 87z"/>
</g>
</svg>
